HIERARCHY
ROOT Hips
{
	OFFSET 0.000000 97.167313 0.000000
	CHANNELS 6 Xposition Yposition Zposition Xrotation Yrotation Zrotation
	JOINT Spine
	{
		OFFSET 0.000000 13.784798 0.064400
		CHANNELS 3 Xrotation Yrotation Zrotation
		JOINT Spine1
		{
			OFFSET 0.000000 12.037903 0.404700
			CHANNELS 3 Xrotation Yrotation Zrotation
			JOINT Spine2
			{
				OFFSET 0.000000 17.795601 0.420200
				CHANNELS 3 Xrotation Yrotation Zrotation
				JOINT Neck
				{
					OFFSET 0.000000 39.131302 11.954600
					CHANNELS 3 Xrotation Yrotation Zrotation
					JOINT Head
					{
						OFFSET 0.000000 14.456192 15.627699
						CHANNELS 3 Xrotation Yrotation Zrotation
						JOINT HeadTop_End
						{
							OFFSET 0.000000 15.703506 7.603401
							CHANNELS 3 Xrotation Yrotation Zrotation
							End Site
							{
								OFFSET 0.000000 17.447403 0.000000
							}
						}
					}
				}
				JOINT LeftShoulder
				{
					OFFSET 17.399500 24.608795 1.168800
					CHANNELS 3 Xrotation Yrotation Zrotation
					JOINT LeftArm
					{
						OFFSET 18.980635 5.765305 1.818600
						CHANNELS 3 Xrotation Yrotation Zrotation
						JOINT LeftForeArm
						{
							OFFSET 49.290169 0.000000 0.000000
							CHANNELS 3 Xrotation Yrotation Zrotation
							JOINT LeftHand
							{
								OFFSET 31.562012 0.000000 0.000000
								CHANNELS 3 Xrotation Yrotation Zrotation
								JOINT LeftHandThumb1
								{
									OFFSET 6.133995 -4.388519 7.076070
									CHANNELS 3 Xrotation Yrotation Zrotation
									JOINT LeftHandThumb2
									{
										OFFSET 6.037666 -3.485840 3.485847
										CHANNELS 3 Xrotation Yrotation Zrotation
										JOINT LeftHandThumb3
										{
											OFFSET 6.496506 -3.750763 3.750761
											CHANNELS 3 Xrotation Yrotation Zrotation
											JOINT LeftHandThumb4
											{
												OFFSET 5.616882 -3.242905 3.242910
												CHANNELS 3 Xrotation Yrotation Zrotation
												End Site
												{
													OFFSET -1.254608 7.132141 0.375429
												}
											}
										}
									}
								}
								JOINT LeftHandPinky1
								{
									OFFSET 18.920792 -0.453171 -11.426712
									CHANNELS 3 Xrotation Yrotation Zrotation
									JOINT LeftHandPinky2
									{
										OFFSET 4.919586 0.000000 0.000000
										CHANNELS 3 Xrotation Yrotation Zrotation
										JOINT LeftHandPinky3
										{
											OFFSET 5.233047 0.000000 0.000000
											CHANNELS 3 Xrotation Yrotation Zrotation
											JOINT LeftHandPinky4
											{
												OFFSET 5.571716 0.000000 0.000000
												CHANNELS 3 Xrotation Yrotation Zrotation
												End Site
												{
													OFFSET -3.459808 4.342407 -0.466164
												}
											}
										}
									}
								}
								JOINT LeftHandRing1
								{
									OFFSET 22.726120 -0.094986 -6.500475
									CHANNELS 3 Xrotation Yrotation Zrotation
									JOINT LeftHandRing2
									{
										OFFSET 6.408615 0.000000 0.000000
										CHANNELS 3 Xrotation Yrotation Zrotation
										JOINT LeftHandRing3
										{
											OFFSET 6.150223 0.000000 0.000000
											CHANNELS 3 Xrotation Yrotation Zrotation
											JOINT LeftHandRing4
											{
												OFFSET 6.145386 0.000000 0.000000
												CHANNELS 3 Xrotation Yrotation Zrotation
												End Site
												{
													OFFSET -3.671402 4.923981 -0.202372
												}
											}
										}
									}
								}
								JOINT LeftHandMiddle1
								{
									OFFSET 23.373947 0.000000 0.000001
									CHANNELS 3 Xrotation Yrotation Zrotation
									JOINT LeftHandMiddle2
									{
										OFFSET 6.996567 0.000000 0.000000
										CHANNELS 3 Xrotation Yrotation Zrotation
										JOINT LeftHandMiddle3
										{
											OFFSET 7.015945 0.000000 0.000000
											CHANNELS 3 Xrotation Yrotation Zrotation
											JOINT LeftHandMiddle4
											{
												OFFSET 7.721573 0.000000 0.000000
												CHANNELS 3 Xrotation Yrotation Zrotation
												End Site
												{
													OFFSET -4.651108 6.158463 0.251582
												}
											}
										}
									}
								}
								JOINT LeftHandIndex1
								{
									OFFSET 21.310577 -0.490082 6.209344
									CHANNELS 3 Xrotation Yrotation Zrotation
									JOINT LeftHandIndex2
									{
										OFFSET 7.536453 0.000000 0.000000
										CHANNELS 3 Xrotation Yrotation Zrotation
										JOINT LeftHandIndex3
										{
											OFFSET 7.512344 0.000000 0.000000
											CHANNELS 3 Xrotation Yrotation Zrotation
											JOINT LeftHandIndex4
											{
												OFFSET 10.212402 0.000000 0.000001
												CHANNELS 3 Xrotation Yrotation Zrotation
												End Site
												{
													OFFSET -5.180801 8.690506 1.388433
												}
											}
										}
									}
								}
							}
						}
					}
				}
				JOINT RightShoulder
				{
					OFFSET -17.399500 24.608795 1.168800
					CHANNELS 3 Xrotation Yrotation Zrotation
					JOINT RightArm
					{
						OFFSET -18.980635 5.765305 1.818600
						CHANNELS 3 Xrotation Yrotation Zrotation
						JOINT RightForeArm
						{
							OFFSET -49.290169 0.000000 0.000000
							CHANNELS 3 Xrotation Yrotation Zrotation
							JOINT RightHand
							{
								OFFSET -31.562012 0.000000 0.000000
								CHANNELS 3 Xrotation Yrotation Zrotation
								JOINT RightHandThumb1
								{
									OFFSET -6.133995 -4.388519 7.076070
									CHANNELS 3 Xrotation Yrotation Zrotation
									JOINT RightHandThumb2
									{
										OFFSET -6.037666 -3.485840 3.485847
										CHANNELS 3 Xrotation Yrotation Zrotation
										JOINT RightHandThumb3
										{
											OFFSET -6.496506 -3.750763 3.750761
											CHANNELS 3 Xrotation Yrotation Zrotation
											JOINT RightHandThumb4
											{
												OFFSET -5.616882 -3.242905 3.242910
												CHANNELS 3 Xrotation Yrotation Zrotation
												End Site
												{
													OFFSET 1.254608 7.132141 0.375429
												}
											}
										}
									}
								}
								JOINT RightHandIndex1
								{
									OFFSET -21.310577 -0.490082 6.209344
									CHANNELS 3 Xrotation Yrotation Zrotation
									JOINT RightHandIndex2
									{
										OFFSET -7.536453 0.000000 0.000000
										CHANNELS 3 Xrotation Yrotation Zrotation
										JOINT RightHandIndex3
										{
											OFFSET -7.512344 0.000000 0.000000
											CHANNELS 3 Xrotation Yrotation Zrotation
											JOINT RightHandIndex4
											{
												OFFSET -10.212402 0.000000 0.000001
												CHANNELS 3 Xrotation Yrotation Zrotation
												End Site
												{
													OFFSET 5.180801 8.690506 1.388433
												}
											}
										}
									}
								}
								JOINT RightHandMiddle1
								{
									OFFSET -23.373947 0.000000 0.000001
									CHANNELS 3 Xrotation Yrotation Zrotation
									JOINT RightHandMiddle2
									{
										OFFSET -6.996567 0.000000 0.000000
										CHANNELS 3 Xrotation Yrotation Zrotation
										JOINT RightHandMiddle3
										{
											OFFSET -7.015945 0.000000 0.000000
											CHANNELS 3 Xrotation Yrotation Zrotation
											JOINT RightHandMiddle4
											{
												OFFSET -7.721573 0.000000 0.000000
												CHANNELS 3 Xrotation Yrotation Zrotation
												End Site
												{
													OFFSET 4.651108 6.158463 0.251582
												}
											}
										}
									}
								}
								JOINT RightHandRing1
								{
									OFFSET -22.726120 -0.094986 -6.500475
									CHANNELS 3 Xrotation Yrotation Zrotation
									JOINT RightHandRing2
									{
										OFFSET -6.408615 0.000000 0.000000
										CHANNELS 3 Xrotation Yrotation Zrotation
										JOINT RightHandRing3
										{
											OFFSET -6.150223 0.000000 0.000000
											CHANNELS 3 Xrotation Yrotation Zrotation
											JOINT RightHandRing4
											{
												OFFSET -6.145386 0.000000 0.000000
												CHANNELS 3 Xrotation Yrotation Zrotation
												End Site
												{
													OFFSET 3.671402 4.923981 -0.202372
												}
											}
										}
									}
								}
								JOINT RightHandPinky1
								{
									OFFSET -18.920792 -0.453171 -11.426712
									CHANNELS 3 Xrotation Yrotation Zrotation
									JOINT RightHandPinky2
									{
										OFFSET -4.919586 0.000000 0.000000
										CHANNELS 3 Xrotation Yrotation Zrotation
										JOINT RightHandPinky3
										{
											OFFSET -5.233047 0.000000 0.000000
											CHANNELS 3 Xrotation Yrotation Zrotation
											JOINT RightHandPinky4
											{
												OFFSET -5.571716 0.000000 0.000000
												CHANNELS 3 Xrotation Yrotation Zrotation
												End Site
												{
													OFFSET 3.459808 4.342407 -0.466164
												}
											}
										}
									}
								}
							}
						}
					}
				}
			}
		}
	}
	JOINT LeftUpLeg
	{
		OFFSET 19.899099 -7.885101 -3.429500
		CHANNELS 3 Xrotation Yrotation Zrotation
		JOINT LeftLeg
		{
			OFFSET 1.745560 -36.997807 10.304700
			CHANNELS 3 Xrotation Yrotation Zrotation
			JOINT LeftFoot
			{
				OFFSET -1.745558 -29.803308 -13.615400
				CHANNELS 3 Xrotation Yrotation Zrotation
				JOINT LeftToeBase
				{
					OFFSET 1.181900 -18.539904 15.226099
					CHANNELS 3 Xrotation Yrotation Zrotation
					JOINT LeftToe_End
					{
						OFFSET -0.863701 1.402801 16.534700
						CHANNELS 3 Xrotation Yrotation Zrotation
						End Site
						{
							OFFSET 0.000000 16.616566 0.000000
						}
					}
				}
			}
		}
	}
	JOINT RightUpLeg
	{
		OFFSET -19.899099 -7.885101 -3.429500
		CHANNELS 3 Xrotation Yrotation Zrotation
		JOINT RightLeg
		{
			OFFSET -1.745560 -36.997807 10.304700
			CHANNELS 3 Xrotation Yrotation Zrotation
			JOINT RightFoot
			{
				OFFSET 1.745558 -29.803308 -13.615400
				CHANNELS 3 Xrotation Yrotation Zrotation
				JOINT RightToeBase
				{
					OFFSET -1.181900 -18.539904 15.226099
					CHANNELS 3 Xrotation Yrotation Zrotation
					JOINT RightToe_End
					{
						OFFSET 0.863701 1.402801 16.534700
						CHANNELS 3 Xrotation Yrotation Zrotation
						End Site
						{
							OFFSET 0.000000 16.616566 0.000000
						}
					}
				}
			}
		}
	}
}
MOTION
Frames: 5
Frame Time: 0.033333
1.212318 47.889427 20.962704 -9.532743 -1.312767 0.313583 13.881555 0.321974 -0.302023 2.231306 -0.080953 -0.180465 2.231280 -0.093636 -0.288726 3.388184 -0.742165 -0.270044 -10.499175 1.965726 0.458230 -0.000000 0.000000 0.000000 1.757548 -12.683252 -7.390580 -38.609700 -25.416585 -58.010934 0.000004 -40.613278 0.000012 42.309235 -13.712672 37.890447 -0.811521 7.966376 -3.818527 7.307155 19.786957 -8.383599 3.501229 4.305144 14.884372 0.000001 -0.000000 0.000000 1.178570 7.848741 -12.789820 0.699752 2.778446 -28.266963 0.063614 0.861915 -8.442004 -0.000001 -0.000003 0.000001 1.438797 8.836144 -13.082407 0.449157 2.251525 -22.560755 0.613596 2.612044 -26.434827 -0.000002 0.000000 0.000002 0.214739 3.680918 -13.006345 0.519743 2.414294 -24.294771 0.258224 1.721768 -17.057486 0.000003 -0.000001 0.000004 0.366934 4.219522 -18.479674 0.567525 2.517365 -25.405433 0.009186 0.328352 -3.205973 -0.000001 -0.000000 0.000001 0.283949 25.894757 6.034465 -20.272106 34.279603 32.018250 0.000012 28.849988 -0.000004 21.158673 4.914150 -29.555991 -12.708819 -9.971845 9.695279 6.358373 -14.447587 -2.112219 3.549372 -4.002716 -15.364613 -0.000001 0.000002 0.000001 -1.689243 0.199016 26.189783 0.612770 -2.311064 29.696747 0.152882 -1.184683 14.705734 -0.000001 -0.000003 -0.000002 -0.108348 -2.680885 20.121447 0.655575 -2.384471 30.741770 0.028830 -0.517975 6.371616 0.000001 0.000000 -0.000008 1.360475 -6.027471 26.138186 0.356888 -1.789616 22.553795 0.039637 -0.606949 7.471823 -0.000001 0.000000 0.000002 4.002543 -10.781398 28.111273 0.403528 -1.897994 24.003602 0.069910 -0.804836 9.929942 0.000002 -0.000000 0.000006 -86.863962 -0.934580 13.806124 85.299002 -8.703938 -5.226876 11.146748 0.318206 3.543448 -0.000035 0.000002 -0.000001 0.000000 0.000000 0.000000 -84.039173 4.060818 -13.114401 93.190739 -2.335313 4.888872 1.058928 -3.428120 -2.314957 -0.125166 0.000010 0.000000 0.000000 0.000000 -0.000000 
1.210136 47.889374 20.961178 -9.532380 -1.343055 0.350790 13.608616 0.269497 -0.397128 2.845128 -0.020710 -0.078108 2.278680 -0.039274 -0.288726 3.503552 -0.656947 -0.316967 -10.510718 2.065299 0.463583 0.000000 -0.000000 0.000000 2.121400 -12.261712 -5.737562 -37.537446 -25.846150 -56.623002 0.000018 -42.506668 -0.000015 37.405248 -15.481339 37.162298 -0.954401 7.173813 -2.155076 7.747519 19.699521 -7.177968 2.259674 3.526960 14.782838 -0.000002 0.000000 0.000003 1.290688 7.533021 -15.483752 0.678850 2.739270 -27.832869 0.115196 1.157254 -11.368702 -0.000001 -0.000000 -0.000000 1.501328 8.481923 -14.786835 0.523400 2.422364 -24.381405 0.683816 2.748616 -27.936421 0.000001 0.000001 0.000002 0.204687 3.642227 -13.779525 0.644387 2.673040 -27.102797 0.330537 1.941757 -19.319496 0.000002 -0.000000 0.000001 0.316757 4.062478 -16.967307 0.680681 2.742712 -27.870835 0.029498 0.587657 -5.744612 -0.000000 -0.000000 -0.000001 0.886119 25.282063 4.541481 -22.402993 31.551369 34.549672 0.000011 33.342176 -0.000006 22.844912 4.827923 -33.348102 -11.621527 -8.420143 8.929837 7.000501 -14.953010 -2.168894 2.010315 -4.533961 -14.011173 0.000001 -0.000005 0.000002 -1.767057 -0.070975 28.373740 0.660363 -2.392536 30.856920 0.123841 -1.067988 13.228756 -0.000001 -0.000003 -0.000002 -0.192892 -2.755860 24.380008 0.698439 -2.455005 31.756640 0.038069 -0.595000 7.324067 -0.000001 0.000002 -0.000001 1.392655 -5.817351 30.720258 0.428189 -1.952401 24.737649 0.062449 -0.760877 9.382837 -0.000000 0.000001 -0.000003 3.883254 -9.743162 31.821995 0.453024 -2.005443 25.456965 0.107402 -0.995428 12.315205 0.000003 -0.000000 0.000002 -86.821799 -0.941875 13.827405 85.295812 -8.691625 -5.238254 11.112141 0.318017 3.506862 -0.000035 0.000002 -0.000001 -0.000000 0.000000 -0.000000 -84.083495 4.055589 -13.111362 93.190077 -2.352710 4.881435 1.088694 -3.385806 -2.364668 -0.125166 0.000012 0.000000 -0.000000 -0.000002 -0.000000 
1.205257 47.889153 20.959696 -9.532022 -1.373740 0.387635 13.293477 0.219366 -0.495978 3.509225 0.049059 0.076091 2.327945 0.019837 -0.288726 3.625051 -0.568895 -0.372145 -10.531423 2.168603 0.459924 0.000000 -0.000000 0.000000 2.491071 -11.789171 -3.941886 -36.723875 -26.458908 -55.261425 0.000014 -43.778309 -0.000003 31.886885 -17.795494 36.928524 -1.088680 6.359529 -0.302488 8.225526 19.587454 -5.751307 0.883012 2.627744 14.676738 -0.000001 0.000002 0.000000 1.356125 7.153239 -18.440910 0.659049 2.701494 -27.415558 0.188489 1.475512 -14.557937 -0.000001 -0.000000 -0.000001 1.539066 8.102326 -16.596837 0.612430 2.609716 -26.409261 0.768366 2.902272 -29.651456 -0.000001 -0.000002 -0.000000 0.193003 3.606001 -14.571853 0.801985 2.960478 -30.308954 0.427052 2.197643 -21.991688 -0.000001 -0.000003 0.000004 0.264997 3.881880 -15.222704 0.826003 3.001140 -30.770795 0.065331 0.873383 -8.555126 -0.000003 0.000001 0.000002 1.481177 24.654661 2.954918 -24.718076 28.904305 37.382397 0.000007 37.055610 -0.000004 24.951154 5.274041 -37.570446 -10.431867 -6.804319 8.151821 7.601854 -15.488448 -2.296652 0.335630 -5.113311 -12.657380 -0.000001 0.000002 -0.000000 -1.844761 -0.371803 30.833383 0.715938 -2.483061 32.162954 0.094596 -0.934933 11.555976 -0.000000 -0.000002 0.000001 -0.304288 -2.855659 29.078236 0.750585 -2.537274 32.954143 0.049044 -0.674783 8.313073 0.000001 -0.000000 -0.000004 1.372936 -5.617700 35.851205 0.511547 -2.123879 27.081162 0.091983 -0.921978 11.393514 0.000000 0.000002 -0.000007 3.595620 -8.650787 35.982321 0.509532 -2.119963 27.026630 0.154457 -1.190664 14.781848 0.000002 -0.000000 0.000006 -86.782628 -0.937823 13.842502 85.293838 -8.676766 -5.246682 11.078461 0.316375 3.479083 -0.000035 0.000002 -0.000001 -0.000000 0.000000 0.000000 -84.125732 4.056618 -13.114709 93.190596 -2.365457 4.875852 1.117175 -3.349248 -2.409731 -0.125166 0.000010 0.000000 0.000000 -0.000002 -0.000000 
1.199238 47.888474 20.958597 -9.531656 -1.404466 0.424467 13.007224 0.187794 -0.612524 4.226310 0.127495 0.270303 2.379159 0.084087 -0.288726 3.752477 -0.477759 -0.435113 -10.545800 2.277292 0.450292 0.000000 0.000000 -0.000000 2.834853 -11.291019 -2.124022 -35.793340 -26.978906 -53.908941 0.000002 -45.028101 -0.000004 26.063109 -20.238472 36.780719 -1.205541 5.562255 1.618468 8.745476 19.498214 -4.254964 -0.538739 1.691915 14.533251 -0.000003 -0.000000 -0.000001 1.366551 6.760651 -21.482813 0.639715 2.663885 -27.002414 0.282102 1.797759 -17.835393 -0.000000 0.000002 -0.000002 1.548131 7.717472 -18.441156 0.711305 2.799785 -28.504408 0.861276 3.059512 -31.437971 -0.000000 0.000001 0.000005 0.179372 3.571007 -15.370490 0.982965 3.249920 -33.649122 0.541284 2.461439 -24.801395 -0.000000 0.000000 0.000004 0.217299 3.692250 -13.401102 0.992503 3.264179 -33.816734 0.116974 1.166075 -11.456660 -0.000001 0.000003 0.000002 2.020828 24.029118 1.431465 -26.605520 26.077340 39.964369 0.000032 40.968137 -0.000016 27.091337 5.775836 -41.481658 -9.189980 -5.174201 7.336402 8.183730 -16.038152 -2.450378 -1.394140 -5.727723 -11.311008 0.000000 0.000000 0.000001 -1.912614 -0.689071 33.418248 0.776535 -2.576824 33.535368 0.068022 -0.793932 9.794274 -0.000001 0.000000 0.000001 -0.436952 -2.984517 33.974700 0.808273 -2.624042 34.235401 0.061595 -0.755750 9.318727 -0.000000 -0.000000 -0.000007 1.291777 -5.450308 41.227312 0.604809 -2.297040 29.498754 0.127994 -1.085472 13.449617 -0.000000 -0.000001 -0.000003 3.126010 -7.599817 40.335901 0.571445 -2.237110 28.655441 0.210781 -1.386594 17.285691 -0.000000 -0.000000 0.000006 -86.744441 -0.933507 13.854522 85.292281 -8.662565 -5.255226 11.045341 0.314274 3.451321 -0.000035 0.000002 -0.000001 -0.000000 -0.000000 0.000000 -84.166871 4.063516 -13.117632 93.193300 -2.374153 4.871252 1.144095 -3.313755 -2.449638 -0.125166 0.000012 0.000000 0.000000 -0.000000 0.000000 
1.193337 47.887634 20.957478 -9.531301 -1.435172 0.461321 12.881465 0.128386 -0.755713 4.948700 0.207617 0.476789 2.430552 0.149164 -0.281291 3.879277 -0.386080 -0.496738 -10.560407 2.387317 0.443082 0.000000 0.000000 -0.000000 3.129519 -10.797554 -0.402174 -34.520640 -27.173506 -52.611161 -0.000020 -46.678421 -0.000027 20.886874 -22.079934 36.481905 -1.303074 4.813780 3.485033 9.299481 19.468561 -2.839903 -1.915402 0.804925 14.334289 -0.000000 -0.000005 -0.000005 1.330565 6.403672 -24.432394 0.620278 2.625468 -26.581197 0.390820 2.105748 -21.026645 0.000004 -0.000003 -0.000003 1.529521 7.346781 -20.248912 0.813295 2.979698 -30.527090 0.955084 3.207687 -33.153947 -0.000001 -0.000002 0.000001 0.163548 3.536016 -16.162543 1.172461 3.517561 -36.858692 0.661889 2.706907 -27.475553 -0.000000 0.000000 0.000004 0.177463 3.508668 -11.657574 1.163942 3.506160 -36.719541 0.181089 1.446798 -14.268173 0.000001 -0.000000 -0.000001 2.465714 23.422580 0.125317 -27.838395 23.234313 41.997139 -0.000010 45.509544 0.000016 28.902045 6.036398 -44.475214 -7.943354 -3.580831 6.465471 8.767681 -16.585497 -2.584554 -3.098643 -6.363458 -9.978267 -0.000001 -0.000001 -0.000001 -1.963559 -1.007180 35.977998 0.838708 -2.668175 34.894607 0.045988 -0.653638 8.050516 -0.000000 0.000000 0.000001 -0.580486 -3.142169 38.828389 0.867170 -2.708478 35.501438 0.075521 -0.836194 10.321078 0.000001 0.000001 -0.000004 1.154413 -5.331550 46.546151 0.704779 -2.465268 31.904620 0.169665 -1.246876 15.496880 0.000001 0.000001 -0.000003 2.501953 -6.669814 44.630341 0.636707 -2.352485 30.284809 0.275413 -1.579305 19.782608 0.000001 0.000000 0.000011 -86.705584 -0.932284 13.866046 85.290724 -8.647263 -5.264358 11.011911 0.311265 3.421155 -0.000035 0.000002 -0.000001 -0.000000 -0.000000 0.000000 -84.207865 4.070680 -13.120819 93.196811 -2.382393 4.866794 1.170148 -3.278363 -2.489403 -0.125166 0.000010 0.000000 0.000000 -0.000003 -0.000000 
